<?xml version="1.0" standalone="no"?>
<!DOCTYPE svg PUBLIC "-//W3C//DTD SVG 20010904//EN"
 "http://www.w3.org/TR/2001/REC-SVG-20010904/DTD/svg10.dtd">
<svg version="1.0" xmlns="http://www.w3.org/2000/svg"
 width="700.000000pt" height="700.000000pt" viewBox="0 0 700.000000 700.000000"
 preserveAspectRatio="xMidYMid meet">
<metadata>
Created by potrace 1.11, written by Peter Selinger 2001-2013
</metadata>
<g transform="translate(0.000000,700.000000) scale(0.100000,-0.100000)"
fill="#000000" stroke="none">
<path d="M4275 6583 c-135 -19 -311 -83 -430 -158 -120 -76 -176 -124 -362
-317 -75 -77 -83 -89 -83 -124 0 -57 31 -101 79 -114 52 -14 80 -2 150 63 304
281 789 85 805 -325 6 -139 -45 -265 -155 -383 -38 -41 -69 -82 -69 -91 0 -9
27 -44 59 -78 l60 -61 -397 -398 c-219 -218 -401 -397 -405 -397 -4 0 -205
198 -447 440 l-440 440 -46 213 c-65 307 -64 304 -82 320 -14 12 -228 135
-712 410 -148 84 -159 88 -180 77 -39 -21 -427 -417 -427 -436 0 -10 80 -158
177 -329 97 -170 188 -331 203 -357 127 -228 92 -201 322 -248 83 -17 189 -40
237 -50 l86 -20 441 -441 c243 -242 441 -444 441 -447 0 -11 -434 -442 -445
-442 -6 0 -58 48 -116 108 -164 166 -184 182 -225 182 -19 0 -45 -5 -57 -11
-34 -18 -186 -175 -196 -203 -13 -32 -5 -75 19 -106 60 -76 71 -136 38 -199
-30 -58 -65 -83 -127 -89 -42 -4 -58 0 -96 22 -25 15 -45 31 -45 35 0 13 -51
29 -80 26 -14 -1 -30 -3 -37 -4 -19 -2 -1359 -1348 -1415 -1421 -102 -133
-150 -275 -154 -455 -3 -134 18 -238 68 -347 46 -98 81 -149 157 -226 280
-287 732 -315 1051 -66 30 23 358 345 727 716 469 469 676 682 681 703 12 40
1 75 -38 123 -39 49 -50 94 -36 148 34 126 159 159 268 71 42 -34 101 -43 133
-21 11 8 59 53 107 100 90 89 109 124 93 176 -4 12 -72 88 -151 168 l-143 145
217 217 c119 120 221 221 225 225 4 4 95 -80 202 -187 l194 -194 -149 -152
c-158 -160 -165 -172 -141 -237 12 -30 178 -196 209 -208 35 -13 70 -4 126 35
82 56 159 54 223 -7 29 -27 49 -76 46 -114 0 -7 -1 -22 -2 -32 0 -11 -17 -41
-38 -67 -43 -58 -55 -101 -38 -140 17 -37 1384 -1401 1448 -1444 87 -58 192
-100 317 -127 62 -14 246 -5 325 16 274 71 498 293 570 566 50 186 19 426 -76
591 -51 88 -137 179 -788 829 l-681 680 -49 0 c-40 0 -55 -5 -78 -27 -82 -78
-200 -72 -256 14 -41 64 -38 120 13 196 67 100 60 123 -79 260 -70 68 -86 78
-137 86 -32 6 -54 -11 -202 -157 l-142 -142 -195 195 -195 196 401 401 401
401 47 -35 c86 -66 176 -95 306 -98 83 -2 90 -3 86 -21 -2 -10 -4 -64 -5 -119
0 -94 2 -104 32 -163 111 -214 369 -286 566 -157 72 46 638 619 665 672 62
123 57 280 -12 390 -89 141 -257 214 -413 178 l-51 -12 -6 111 c-5 123 -25
189 -79 272 -43 64 -685 705 -774 772 -75 57 -233 138 -330 171 -100 33 -230
51 -359 49 -66 0 -133 -3 -150 -5z m340 -110 c158 -27 310 -92 440 -189 39
-29 221 -205 406 -391 407 -408 400 -397 404 -612 l3 -115 -309 -308 -309
-309 -107 2 c-116 2 -183 17 -250 56 -22 13 -155 138 -295 277 l-254 253 47
53 c164 183 199 445 88 669 -165 333 -622 420 -902 170 -100 -89 -74 -51 53
77 69 69 154 147 190 174 234 173 511 241 795 193z m-2833 -560 c21 -13 39
-23 41 -23 2 0 75 -41 163 -91 87 -50 184 -105 214 -122 246 -137 240 -132
253 -220 8 -52 88 -422 93 -427 3 -3 208 -209 457 -457 l452 -453 -130 -130
c-72 -71 -134 -130 -140 -130 -5 0 -213 203 -461 451 l-451 451 -114 24 c-152
32 -160 34 -189 40 -121 25 -205 45 -211 51 -5 7 -236 408 -312 543 -10 19
-43 78 -73 131 -30 52 -54 98 -54 102 0 4 74 82 165 172 l166 165 47 -27 c26
-15 64 -37 84 -50z m4411 -796 c155 -55 233 -215 181 -373 -15 -43 -53 -85
-321 -355 -210 -211 -319 -314 -351 -330 -69 -35 -187 -34 -257 3 -93 49 -147
131 -153 235 -8 125 -5 131 333 471 281 285 335 331 405 353 40 12 122 10 163
-4z m-1652 -326 c71 -71 129 -132 129 -135 0 -3 -375 -381 -833 -840 l-833
-835 -134 134 -135 135 835 835 c459 459 837 835 839 835 2 0 61 -58 132 -129z
m-411 -1616 l-135 -135 -195 195 -195 195 135 135 135 135 195 -195 195 -195
-135 -135z m676 289 l34 -31 -30 -38 c-32 -41 -60 -120 -60 -169 1 -44 32
-128 60 -163 91 -111 259 -127 378 -36 l34 26 670 -669 c368 -368 684 -689
702 -714 67 -90 118 -208 133 -309 8 -53 7 -173 -1 -213 -3 -16 -9 -40 -12
-55 -10 -51 -57 -158 -92 -212 -92 -140 -223 -235 -397 -287 -96 -29 -277 -25
-380 9 -165 54 -152 43 -897 790 -379 379 -688 691 -688 693 0 3 11 20 25 38
126 165 19 412 -186 429 -88 7 -215 -47 -205 -87 3 -10 -34 21 -81 69 l-85 88
482 477 483 477 39 -41 c22 -22 55 -55 74 -72z m-1607 -980 l-72 -73 -43 31
c-110 79 -252 68 -346 -26 -57 -57 -73 -99 -73 -191 0 -81 8 -102 67 -187 11
-15 -70 -100 -657 -688 -670 -670 -727 -723 -849 -779 -246 -114 -572 -50
-764 148 -229 237 -260 597 -74 868 22 32 344 361 715 732 l675 673 34 -25
c142 -109 348 -58 415 102 34 80 18 210 -34 265 -12 14 -23 30 -23 36 0 6 33
42 73 80 l72 70 479 -481 478 -481 -73 -74z"/>
<path d="M4974 2580 c-93 -21 -186 -98 -227 -188 -17 -36 -22 -67 -22 -132 0
-144 -14 -127 542 -683 268 -268 497 -493 508 -501 11 -7 42 -21 70 -30 223
-76 450 103 430 339 -11 116 -15 121 -532 639 -263 264 -496 492 -517 508 -62
45 -172 66 -252 48z m166 -121 c51 -25 991 -969 1012 -1016 48 -105 -6 -245
-112 -291 -48 -20 -137 -19 -180 2 -48 24 -986 961 -1012 1010 -55 106 -2 250
112 300 45 20 135 18 180 -5z"/>
<path d="M1847 2510 c-27 -10 -65 -31 -85 -47 -20 -15 -250 -240 -510 -500
-538 -537 -527 -523 -526 -668 0 -98 22 -153 89 -224 66 -70 128 -96 235 -96
141 1 121 -16 677 538 561 559 548 543 548 687 0 100 -27 169 -90 234 -83 84
-231 117 -338 76z m176 -101 c76 -21 143 -105 151 -191 9 -100 8 -101 -511
-621 -281 -281 -494 -487 -518 -499 -77 -41 -187 -23 -251 40 -62 61 -81 168
-45 247 24 55 956 985 1015 1015 45 22 101 26 159 9z"/>
</g>
</svg>
